<?xml version="1.0" encoding="UTF-8"?>
<svg xmlns="http://www.w3.org/2000/svg" xmlns:xlink="http://www.w3.org/1999/xlink" viewBox="0 0 64 64" version="1.1">
<g id="surface1">
<path style=" stroke:none;fill-rule:evenodd;fill:rgb(38.431373%,49.411765%,91.764706%);fill-opacity:1;" d="M 64 32 C 64 14.328125 49.671875 0 32 0 C 14.328125 0 0 14.328125 0 32 C 0 49.671875 14.328125 64 32 64 C 49.671875 64 64 49.671875 64 32 Z M 64 32 "/>
<path style=" stroke:none;fill-rule:nonzero;fill:rgb(100%,100%,100%);fill-opacity:0.603922;" d="M 32.996094 8 L 32.996094 25.738281 L 47.988281 32.441406 Z M 32.996094 8 "/>
<path style=" stroke:none;fill-rule:nonzero;fill:rgb(100%,100%,100%);fill-opacity:1;" d="M 32.996094 8 L 18 32.441406 L 32.996094 25.738281 Z M 32.996094 8 "/>
<path style=" stroke:none;fill-rule:nonzero;fill:rgb(100%,100%,100%);fill-opacity:0.603922;" d="M 32.996094 43.9375 L 32.996094 55.988281 L 48 35.230469 Z M 32.996094 43.9375 "/>
<path style=" stroke:none;fill-rule:nonzero;fill:rgb(100%,100%,100%);fill-opacity:1;" d="M 32.996094 55.988281 L 32.996094 43.933594 L 18 35.230469 Z M 32.996094 55.988281 "/>
<path style=" stroke:none;fill-rule:nonzero;fill:rgb(100%,100%,100%);fill-opacity:0.2;" d="M 32.996094 41.144531 L 47.988281 32.441406 L 32.996094 25.742188 Z M 32.996094 41.144531 "/>
<path style=" stroke:none;fill-rule:nonzero;fill:rgb(100%,100%,100%);fill-opacity:0.603922;" d="M 18 32.441406 L 32.996094 41.144531 L 32.996094 25.742188 Z M 18 32.441406 "/>
</g>
</svg>
